<svg width="30" height="37" viewBox="0 0 30 37" fill="none" xmlns="http://www.w3.org/2000/svg">
<path d="M26.6667 3.33333H19.7C19 1.4 17.1667 0 15 0C12.8333 0 11 1.4 10.3 3.33333H3.33333C1.5 3.33333 0 4.83333 0 6.66667V33.3333C0 35.1667 1.5 36.6667 3.33333 36.6667H26.6667C28.5 36.6667 30 35.1667 30 33.3333V6.66667C30 4.83333 28.5 3.33333 26.6667 3.33333ZM15 3.33333C15.9167 3.33333 16.6667 4.08333 16.6667 5C16.6667 5.91667 15.9167 6.66667 15 6.66667C14.0833 6.66667 13.3333 5.91667 13.3333 5C13.3333 4.08333 14.0833 3.33333 15 3.33333ZM26.6667 33.3333H3.33333V6.66667H6.66667V11.6667H23.3333V6.66667H26.6667V33.3333Z" fill="#003366"/>
</svg>
